<svg xmlns="http://www.w3.org/2000/svg" width="808" height="489.498"><g data-name="Group 1517"><path data-name="Path 2971" d="M472.08.284c-65.316-3.272-161.078 21.414-207.5 91.78 0 0-57.947 80.922-128.8 99.313 0 0-135.778 34.022-135.778 173.309 0 0 4.481 120.834 103.944 124.1h575.373s104.406 8.393 127.192-142.4c12.352-81.736-55.293-210.6-86.534-240.5C662.683 51.062 598.346 6.608 472.08.284z" fill="#cdefff"/><g data-name="Group 1506"><g data-name="Group 1505"><path data-name="Path 2972" d="M640.058 335.255a19.086 19.086 0 1019.087 19.083 19.086 19.086 0 00-19.087-19.083zm0 30.6a11.518 11.518 0 1111.521-11.517 11.519 11.519 0 01-11.521 11.521z" fill="#115593"/><path data-name="Rectangle 238" d="M563.329 326.789h73.13a1.806 1.806 0 011.806 1.806v53.4h-76.742v-53.4a1.806 1.806 0 011.806-1.806z" fill="#3a76c1"/><g data-name="Group 1504" fill="#004172"><path data-name="Path 2973" d="M638.264 335.346v7.632a10.69 10.69 0 013.753.025v-7.648c-.644-.065-1.3-.1-1.959-.1-.606 0-1.203.036-1.794.091z"/><path data-name="Path 2974" d="M642.017 373.329v-7.648a10.692 10.692 0 01-3.753.025v7.632c.591.055 1.188.091 1.794.091a19.607 19.607 0 001.959-.1z"/></g></g><path data-name="Path 2975" d="M661.03 352.281a19.089 19.089 0 00-17.127-18.987h0c-.644-.065-1.3-.1-1.959-.1-.606 0-1.2.036-1.794.091v-6.1a2.458 2.458 0 00-2.458-2.458h-71.827a2.458 2.458 0 00-2.458 2.458v51.72h76.743v-7.631c.591.055 1.188.091 1.794.091.661 0 1.315-.034 1.959-.1h0a19.089 19.089 0 0017.127-18.984zm-17.127 11.339h0a11.428 11.428 0 01-1.959.179c-.321 0-.637-.022-.953-.048q-.425-.039-.841-.106h0v-22.728h0q.416-.066.841-.106c.316-.026.632-.048.953-.048a11.657 11.657 0 011.959.179h0a11.505 11.505 0 010 22.679z" fill="none" stroke="#000" stroke-miterlimit="10" stroke-width="1.35"/></g><g data-name="Group 1516"><g data-name="Group 1507"><path data-name="Path 2976" d="M220.023 440.158q0 1.183-.011 2.322a71.979 71.979 0 01-17.769 46.304h220.665a16.981 16.981 0 00-5.6-4.31c-13.057-6.377-12.392-45.587-12.392-45.587l-.06-90.329c4.057-85.784-54.1-85.784-54.1-85.784h-75.08c-64.913 5.023-56.406 85.784-56.406 85.784z" fill="#aecefc"/><path data-name="Path 2977" d="M216.351 440.158q0 1.183-.011 2.322a71.979 71.979 0 01-17.772 46.3h220.668a16.981 16.981 0 00-5.6-4.31c-13.053-6.373-12.392-45.583-12.392-45.583l-.06-90.329c4.057-85.784-54.1-85.784-54.1-85.784h-75.08c-64.913 5.023-56.407 85.784-56.407 85.784z" fill="none" stroke="#000" stroke-linecap="round" stroke-linejoin="round" stroke-width="1.35"/></g><g data-name="Group 1511"><g data-name="Group 1508" transform="translate(206.229 66.23)"><path data-name="Path 2978" d="M133.704 49.063s1.293-2.923 1.293-9.4c0-17.78-24.169-36.042-52.867-36.042s-29.617 16.233-29.327 22.32-5.071 21.153-8.961 26.134-20.413 14.064-26.308 19.281S5.677 83.1 6.6 90.393s2.085 15.249 6.267 21.808a103.52 103.52 0 0017.4 20.9c6.964 6.167 17.5 15.762 19.9 19.477s2.055 6.517.364 9.174a67.875 67.875 0 01-6.961 9.041c-2.386 2.51-6.373 4.594-7.535 6.67s-4.08 8.23-3.345 10.782.143 4.333 3.7 8.672c0 0 28.559-11.242 29.211-11.242s6.752-10.82 6.752-10.82l2.09-6.476c7.144 3.676 19.411 4.185 35.961 2.041 0 0-12.7-2.066-16.9-10.907s-5.219-15.365-5.726-26.09-2.029-29.423-7.754-30.872c0 0 4.275-2.536 4.275-6.087s-9.783-18.118-9.783-18.118 2.73-6.4 11.136-12.973 22.03-18.649 31.936-18.649c4.154 0 15.605 3.044 15.605 3.044z" fill="#f2f1e4"/><path data-name="Path 2979" d="M24.296 206.65l51.166-18.733v-14.93c21.7 2.7 39.814 3.33 50.948-.071l5.8 10.073s18.915 4.348 32.394 13.117 18.529 15.171 20.558 31.4 16.532 136.069 16.532 136.069H2.884l6.605-101.8 2.2-39.178a24.024 24.024 0 0112.607-15.947z" fill="#2084da"/><path data-name="Line 477" fill="none" stroke="#000" stroke-linecap="round" stroke-linejoin="round" stroke-width="1.35" d="M40.955 261.423l-3.553 102.152"/><path data-name="Path 2980" d="M71.704 167.698c-.758 7.277-1.051 13.937-.242 19.132 24.76 5.207 44.718 6.093 56.383-.484l-5.8-17.972c-11.809 5.131-29.398 4.033-50.341-.676z" fill="none" stroke="#000" stroke-linecap="round" stroke-linejoin="round" stroke-width=".65"/><path data-name="Path 2981" d="M76.01 169.002s5.829-10 6.263-28.553-10.871-24.205-10.871-24.205c-8.913.29-22.393-5.435-22.393-14.2 0-4.784 4.2-7.32 9.566-7.32 8.335 0 7.537 8.044 13.915 8.044 3.985 0 7.174-2.536 7.174-6.45 0-4.711-8.842-9.349-8.842-19.132 0-12.393 23.819-32.974 48.942-32.974 13.021 0 34.4 18.552 36.574 42.245 0 0 20.654 13.558 20.727 14.209s-2.826 2.465-17.972 2.1v13.77s-11.518 3.238-18.7 2.793c-9.349-.58-11.528-1.657-11.528-1.657-.653.435-8.086 14.251 27.469 11.111 0 0-15.113 18.923-26.379 22.373-8.981 2.75-7.9 17.141-7.9 17.141s-26.06 7.317-46.045.705z" fill="#fff" stroke="#000" stroke-linecap="round" stroke-linejoin="round" stroke-width="1.35"/><path data-name="Path 2982" d="M71.463 186.83c-13.2 5.273-37.078 11.739-52.036 19.82 0 0-10.677 5.237-10.677 19.966L0 363.575" fill="none" stroke="#000" stroke-linecap="round" stroke-linejoin="round" stroke-width="1.35"/><path data-name="Path 2983" d="M127.845 186.346s15.073 1.789 33.191 11.789 21.6 23.191 24.061 41.453 3.913 83.371 3.913 83.371" fill="none" stroke="#000" stroke-linecap="round" stroke-linejoin="round" stroke-width=".65"/><path data-name="Path 2984" d="M56.601 101.299a8.677 8.677 0 014.7.043c1.26.382 3.729 1.452 3.5 3.136-.115.864-1.081.769-1.712.779a1.083 1.083 0 00-1.187 1.03 2.332 2.332 0 00.313 1.224 11.786 11.786 0 003.08 3.723" fill="none" stroke="#000" stroke-linecap="round" stroke-linejoin="round" stroke-width="1.35"/><path data-name="Path 2985" d="M133.987 49.507a14.5 14.5 0 005.392-10.881c0-19.2-30.437-38.627-57.976-38.627S46.327 17.393 46.327 23.19s2.029 11.837 2.029 18.408-4.832 12.561-13.238 16.717S6.518 69.91 6.518 87.4c0 41.308 45.753 54.5 45.753 71.746 0 13.962-19.663 12.513-19.663 27.2 0 7.924 4.292 11.007 4.292 11.007" fill="none" stroke="#000" stroke-linecap="round" stroke-linejoin="round" stroke-width="1.35"/><path data-name="Path 2986" d="M141.699 65.804a9.668 9.668 0 00-6.7-3.914" fill="none" stroke="#000" stroke-linecap="round" stroke-linejoin="round" stroke-width="1.35"/><path data-name="Path 2987" d="M115.067 61.565c-3.922.2-7.447 1.357-10.146 4.529" fill="none" stroke="#000" stroke-linecap="round" stroke-linejoin="round" stroke-width="1.35"/><ellipse data-name="Ellipse 299" cx="2.561" cy="6.861" rx="2.561" ry="6.861" transform="translate(135.129 71.36)"/><ellipse data-name="Ellipse 300" cx="2.971" cy="6.329" rx="2.971" ry="6.329" transform="translate(112.76 73.341)"/></g><g data-name="Group 1510"><path data-name="Path 2988" d="M492.58 245.313c-11.849 2.878-30.591 11.118-45.887 18.291" fill="none" stroke="#000" stroke-linecap="round" stroke-linejoin="round" stroke-width="1.293"/><path data-name="Path 2989" d="M267.174 396.045s-7.923-123.1-8.116-142.817-2.995-23.384 10.339-23.6 141.174-1.811 162.916-1.811 87.884.628 95.373.628 8.5 4.3 7.779 11.789-12.852 95.565-16.331 121.8-4.59 34.013-4.59 34.013z" fill="#4f5b66"/><path data-name="Path 2990" d="M389.849 295.634v7.2l-9.47 8.31 9.035 8.89-3.189 2.9-9.759-8.358v-7.44z" fill="#fff"/><path data-name="Path 2991" d="M391.873 307.471l-2.851 2.851 9.373 9.421-9.373 8.117v7.1l13.093-11.354v-7.344z" fill="#fff"/><g data-name="Group 1509"><path data-name="Path 2992" d="M523.415 225.482H262.208a6.866 6.866 0 00-6.859 7.166l6.982 159.035h250.562l21.212-153.942a10.786 10.786 0 00-10.69-12.259z" fill="none" stroke="#000" stroke-linecap="round" stroke-linejoin="round" stroke-width="1.35"/></g></g></g><g data-name="Group 1512"><path data-name="Path 2994" d="M394.915 488.784c6.071-10.091 10.136-26.321 3.374-51.467H224.31s-10.686 31.745-3.472 51.467z" fill="#004172"/><path data-name="Path 2995" d="M253.569 484.402s24.671-38.391 52.072 0l2.4 1.12" fill="none" stroke="#000" stroke-linecap="round" stroke-linejoin="round" stroke-width="1.35"/><path data-name="Path 2996" d="M360.11 485.521c-27.4-38.391-52.072 0-52.072 0l-.2 3.263" fill="none" stroke="#000" stroke-linecap="round" stroke-linejoin="round" stroke-width="1.35"/><path data-name="Path 2997" d="M392.19 488.784c6.071-10.091 10.135-26.321 3.374-51.467H221.582s-10.68 31.745-3.47 51.467z" fill="none" stroke="#000" stroke-linecap="round" stroke-linejoin="round" stroke-width="1.35"/></g><g data-name="Group 1513"><path data-name="Path 2998" d="M108.318 488.784h37.266v-50.519h492.26v50.519h37.266v-50.519h28.9v-56.268H80.537v56.268h27.781z" fill="#a7adbc" fill-rule="evenodd"/><path data-name="Path 2999" d="M103.944 488.787h37.266v-54.451h500.843v54.451h37.266v-54.451h28.9v-56.267H76.162v56.268h27.782z" fill="none" stroke="#000" stroke-miterlimit="10" stroke-width="1.35"/></g><g data-name="Group 1515"><path data-name="Path 3000" d="M439.891 170.05s-3.418-15.9-11.625-26.027c-.475-.587-.986-1.144-1.491-1.706-3.448-3.832-20.834-25.31.563-47.575 0 0 22.017-23.929 48.818 0 0 0 17.451 15.889 5.05 40.372a48.1 48.1 0 01-7.237 10.36c-3.382 3.759-9.566 14.205-10.257 24.576" fill="#f0c330"/><path data-name="Path 3001" d="M449.742 84.048s24.017 9.784 24.017 36.025c0 0 .223 10.229-5.337 17.346 0 0-18.457 19.346-18.68 32.688h13.12a109.76 109.76 0 013.194-10.71 51.524 51.524 0 0110.3-17.02 34.693 34.693 0 008.968-24.973s.221-32.245-35.582-33.356z" fill="#edb529"/><path data-name="Rectangle 239" fill="#1483de" d="M437.291 170.075h29.079v15.986h-29.079z"/><path data-name="Path 3002" d="M452.647 149.194v-32.929a2.447 2.447 0 00-1.276-2.209 2.414 2.414 0 00-1.686-.163 3.33 3.33 0 00-2.462 3.278v33.619a2.9 2.9 0 002.712 2.234v5.732a1.789 1.789 0 001.908 1.823c.595-.066 1.1-.414 1.117-1.4a3.087 3.087 0 00-1.855-2.863 2.341 2.341 0 00-2.568.368 3.472 3.472 0 00-.978 3.972 2.853 2.853 0 002.532 1.808l-.005 7.612" fill="none" stroke="#fff" stroke-linecap="round" stroke-miterlimit="10" stroke-width="1.35"/><path data-name="Rectangle 240" fill="none" stroke="#000" stroke-linecap="round" stroke-linejoin="round" stroke-miterlimit="10" stroke-width="1.35" d="M435.797 170.075h29.079v15.986h-29.079z"/><path data-name="Line 478" fill="none" stroke="#000" stroke-linecap="round" stroke-miterlimit="10" stroke-width="1.35" d="M435.797 174.033h22.685"/><path data-name="Line 479" fill="none" stroke="#000" stroke-linecap="round" stroke-miterlimit="10" stroke-width="1.35" d="M440.974 178.068h23.903"/><path data-name="Line 480" fill="none" stroke="#000" stroke-linecap="round" stroke-miterlimit="10" stroke-width="1.35" d="M435.797 181.95h22.685"/><path data-name="Path 3003" d="M441.887 189.105s.412 5.938 8.2 5.938c0 0 9.005 0 9.005-8.982" fill="none" stroke="#000" stroke-linecap="round" stroke-miterlimit="10" stroke-width="1.35"/><g data-name="Group 1514" fill="none" stroke="#000" stroke-linecap="round" stroke-miterlimit="10" stroke-width="1.35"><path data-name="Line 481" d="M416.614 136.276l-6.699 4.415"/><path data-name="Line 482" d="M413.265 127.141l-4.111 1.218"/><path data-name="Line 483" d="M406.87 128.968l-5.176 1.675"/><path data-name="Line 484" d="M399.106 131.404l-2.436.913"/><path data-name="Line 485" d="M411.209 117.397h-6.927"/><path data-name="Line 486" d="M413.264 107.958l-3.349-1.066"/><path data-name="Line 487" d="M406.871 105.826l-7.765-2.131"/><path data-name="Line 488" d="M416.614 97.91l-6.699-3.654"/><path data-name="Line 489" d="M422.704 90.297l-1.675-1.827"/><path data-name="Line 490" d="M419.659 87.1l-6.394-6.394"/><path data-name="Line 491" d="M431.077 83.903l-2.131-3.197"/><path data-name="Line 492" d="M425.597 75.523l1.827 2.747"/><path data-name="Line 493" d="M422.704 70.353l1.522 2.588"/><path data-name="Line 494" d="M437.929 72.941l2.284 7.765"/><path data-name="Line 495" d="M450.086 65.111v6.394"/><path data-name="Line 496" d="M450.086 74.616v4.567"/><path data-name="Line 497" d="M462.136 72.941l-2.131 7.765"/><path data-name="Line 498" d="M475.773 72.223l-4.111 7.765"/><path data-name="Line 499" d="M470.358 82.304l-1.066 1.599"/><path data-name="Line 500" d="M482.842 84.512l-5.481 5.785"/><path data-name="Line 501" d="M498.088 89.623l-2.131 1.37"/><path data-name="Line 502" d="M493.086 92.472l-4.415 2.893"/><path data-name="Line 503" d="M486.184 96.996l-2.436 1.675"/><path data-name="Line 504" d="M487.713 107.426l7.156-1.599"/><path data-name="Line 505" d="M488.475 117.397h2.817"/><path data-name="Line 506" d="M493.803 117.397h7.46"/><path data-name="Line 507" d="M487.713 127.75l8.221 2.055"/><path data-name="Line 508" d="M484.06 136.733l3.654 1.751"/><path data-name="Line 509" d="M490.601 139.923l4.986 2.406"/></g></g></g><path data-name="Path 3004" d="M590.379 317.447c3.244-.383 5.24-4.094 4.91-7.343s-2.32-6.061-4.322-8.641-4.141-5.222-4.861-8.406a14.118 14.118 0 011.842-9.839 41.992 41.992 0 016.369-7.982" fill="none" stroke="#000" stroke-linecap="round" stroke-linejoin="round" stroke-width="1.35"/><path data-name="Path 3005" d="M605.998 314.782a10.114 10.114 0 00-1.864-7.857c-.892-1.175-2.035-2.14-2.924-3.316a10.194 10.194 0 01-.345-11.5" fill="none" stroke="#000" stroke-linecap="round" stroke-linejoin="round" stroke-width="1.35"/><path data-name="Path 3006" d="M614.073 318.46a19.121 19.121 0 002.083-15.914c-.945-2.952-2.6-5.622-3.785-8.486a28.923 28.923 0 014.023-28.489" fill="none" stroke="#000" stroke-linecap="round" stroke-linejoin="round" stroke-width="1.35"/></g></svg>
